<svg id="Layer_1" data-name="Layer 1" xmlns="http://www.w3.org/2000/svg" viewBox="0 0 170.9 152.2"><title>Canadian Tire logo - Brandlogos.net</title><path d="M468.35,338.6a9.8,9.8,0,0,0-8.7-5.3H408l1.8-6.9a.83.83,0,0,0-.5-1,.45.45,0,0,0-.5,0l-7,1.9a.37.37,0,0,1-.3-.1l-2.3-4.4a.71.71,0,0,0-1-.3.22.22,0,0,0-.2.2l-2.3,2.7a.3.3,0,0,1-.4,0c-.1-.1-.1-.1-.1-.2l2.2-10.5a.78.78,0,0,0-.6-.9,1.27,1.27,0,0,0-.6.1l-6.3,3.7c-.1.1-.3,0-.4-.1h0l-4.9-9.2a.8.8,0,0,0-1.1-.3c-.1.1-.3.2-.3.3l-4.9,9.2c-.1.1-.2.2-.4.1h0l-6.3-3.7a.83.83,0,0,0-1.1.3,1.27,1.27,0,0,0-.1.6l2.2,10.5c0,.1,0,.3-.2.3a.37.37,0,0,1-.3-.1l-2.3-2.7a.79.79,0,0,0-1.1-.1l-.2.2-2.3,4.4c-.1.1-.2.2-.3.1l-7.1-1.8a.83.83,0,0,0-1,.5.45.45,0,0,0,0,.5l1.8,6.9h-51.2a9.83,9.83,0,0,0-8,15.5L376,456a9.89,9.89,0,0,0,13.7,2.3A10,10,0,0,0,392,456l75.7-107.2A9.86,9.86,0,0,0,468.35,338.6Zm-106.5-3a1.62,1.62,0,0,0,.8-1.9l-1.3-5,5,1.3a1.82,1.82,0,0,0,1.9-.8l1.5-2.9,5.9,6.8a.79.79,0,0,0,1.1.1,1.08,1.08,0,0,0,.3-.7L374,318l3.9,2.3a1.73,1.73,0,0,0,2.2-.5v-.1l3.9-7.4,3.9,7.4a1.55,1.55,0,0,0,2.1.7h.1l3.9-2.3-3.1,14.4a.71.71,0,0,0,.6.9.67.67,0,0,0,.8-.3l5.9-6.8,1.5,2.9a1.67,1.67,0,0,0,1.9.8l5-1.3-1.3,5a1.67,1.67,0,0,0,.8,1.9l2.9,1.5-12.5,10.7a1.53,1.53,0,0,0-.3,1.9l1.8,3.2-12.1-2.1V356h-3.6v-5.2l-12.2,2.1,1.7-3.2a1.68,1.68,0,0,0-.3-1.9L359,337.1Zm102.7,11-75.7,107.2a6.06,6.06,0,0,1-8.4,1.5,5.36,5.36,0,0,1-1.5-1.5l-75.6-107.2a6.07,6.07,0,0,1,1.4-8.4,5.31,5.31,0,0,1,3.6-1.1h46.7l14,12a.37.37,0,0,1,.1.3l-3.3,6a.57.57,0,0,0,.2.7.37.37,0,0,0,.3.1l13-2.3c.1,0,.3.1.3.2h0v4.1c0,.1.1.3.2.3h8.2a.32.32,0,0,0,.3-.3h0V354a.32.32,0,0,1,.3-.3h0l13,2.3a.55.55,0,0,0,.6-.4.37.37,0,0,0-.1-.3l-3.3-6c-.1-.1,0-.2.1-.3l13.9-12h46.7a6.08,6.08,0,0,1,6.1,5.9,5.27,5.27,0,0,1-1.1,3.7Z" transform="translate(-298.55 -307.9)" style="fill:#fff"/><path d="M361.85,335.6l-2.9,1.5,12.5,10.8a1.53,1.53,0,0,1,.3,1.9l-1.7,3.1,12.1-2.1h0V356h3.6v-5.2l12.1,2.1-1.8-3.2a1.53,1.53,0,0,1,.3-1.9L409,337.1l-2.9-1.5a1.62,1.62,0,0,1-.8-1.9l1.3-5h0l-5,1.3a1.82,1.82,0,0,1-1.9-.8l-1.5-2.9-5.9,6.8a.78.78,0,0,1-1.1.1,1.14,1.14,0,0,1-.3-.8l3-14.5-3.9,2.3a1.73,1.73,0,0,1-2.2-.5v-.1l-3.8-7.3-3.9,7.4a1.55,1.55,0,0,1-2.1.7h-.1L374,318l3.1,14.4a.78.78,0,0,1-.6.9.52.52,0,0,1-.7-.3l-5.9-6.8-1.5,2.9a1.62,1.62,0,0,1-1.9.8l-5-1.3h0l1.3,5A1.81,1.81,0,0,1,361.85,335.6Z" transform="translate(-298.55 -307.9)" style="fill:#009e49"/><path d="M459.55,337.1h-46.7l-13.9,12a.37.37,0,0,0-.1.3l3.3,6c.1.2.1.6-.2.7a.37.37,0,0,1-.3.1l-13-2.3c-.1,0-.3.1-.3.2h0v4.1a.32.32,0,0,1-.3.3h-8.2a.32.32,0,0,1-.3-.3h0V354a.32.32,0,0,0-.3-.3h0l-13,2.3c-.3,0-.6-.1-.6-.4a.37.37,0,0,1,.1-.3l3.3-6c.1-.1,0-.2-.1-.3l-14-12h-46.6a6,6,0,0,0-6.1,5.9,6.38,6.38,0,0,0,1.1,3.6L379,453.7a6.06,6.06,0,0,0,8.4,1.5,5.36,5.36,0,0,0,1.5-1.5l75.7-107.1a6.07,6.07,0,0,0-1.4-8.4A6.38,6.38,0,0,0,459.55,337.1Z" transform="translate(-298.55 -307.9)" style="fill:#d81e05"/></svg>