<svg xmlns="http://www.w3.org/2000/svg" xmlns:xlink="http://www.w3.org/1999/xlink" viewBox="0 0 164.09 164.09"><defs><style>.a{fill:none;}.b{clip-path:url(#a);}.c{fill:#fff;}.d{fill:#001b72;}.e{clip-path:url(#b);}.f{fill:#474442;}.g{fill:#ac1924;}.h{fill:#009aca;}.i{fill:#a92337;}</style><clipPath id="a" transform="translate(-430 -429.95)"><rect class="a" x="430" y="429.96" width="164" height="164.08"/></clipPath><clipPath id="b" transform="translate(-430 -429.95)"><rect class="a" x="430" y="429.96" width="163.99" height="164.08"/></clipPath></defs><title>Canada Goose logo - Brandlogos.net</title><g class="b"><path class="c" d="M590.72,512A78.67,78.67,0,1,1,512,433.33,78.67,78.67,0,0,1,590.72,512" transform="translate(-430 -429.95)"/><path class="d" d="M562.79,512A50.74,50.74,0,1,1,512,461.26,50.74,50.74,0,0,1,562.79,512" transform="translate(-430 -429.95)"/></g><g class="e"><path class="f" d="M515,512a3,3,0,1,0-3,3,3,3,0,0,0,3-3" transform="translate(-430 -429.95)"/><path class="g" d="M548.5,510.75a5.74,5.74,0,0,1-.57-1.06,4.26,4.26,0,0,1-.21-2.8c.43-1.26,1.62-3.24,2-4.35a10.68,10.68,0,0,0-1.62-9.31l-.3-.39,7.55-4.35a48.89,48.89,0,0,1,6,22.26Zm-1,20.26a10.15,10.15,0,0,0,2.1-.35c1.17-.54,1.11-1.72,2.83-2.79.49-.31,1.6-.56,1.57-1.42-.1-2.87-1.32-3.46-1.31-4.79,0-1.18.75-3,.18-4-.29-.45-1.06-.23-1.59-.58-1-.66-.09-1.61-.45-2.66a6,6,0,0,0-.58-1.15h11.09a48.89,48.89,0,0,1-6,22.26Zm-26.93-7.36a.78.78,0,0,1,.24-.25c1.21-.83,1.77,1.19,3.73,3.14,1.19,1.2,2.78-.8,3.76.14,1.49,1.43,1.89,2.74,5.26,4.14,1.57.65-1.78,3.27.81,4,1.11.33,3.08.27,3.62.82s-.65,1.51,1.08,2a4.18,4.18,0,0,0,4.08-.9c1.23-1.21.29-2.61,1.85-4.32l9.11,5.26A49.64,49.64,0,0,1,538,553.9Zm-7,5.52a4,4,0,0,0,1.06-1c1.5-1.29,3.46-.68,4.83-1.42l16.41,28.43a49,49,0,0,1-22.31,6.09Zm13.55-45.7a1,1,0,0,0-.69-.26c-1.37,0-1.11,1.64-1.85,1.64-.49,0-.57-.83-1.94-.83a7.89,7.89,0,0,0-2.71.47c-1.09.48-.64,2.18-2.9,2.57A2.67,2.67,0,0,1,515,487c-.88-.52-.5-2.07-1.52-2.76l-.19-.11V462.74a49,49,0,0,1,22.26,6Zm12.81,5c-.25-.77.28-1.89-.95-2.7a2.63,2.63,0,0,0-4.16,1.6c-.12.45-.55,1-1.76.66s-1.61-.48-2-1.62-.21-2.21-1.47-2.15L537.78,470a49.65,49.65,0,0,1,16.3,16.3L545.9,491a15,15,0,0,0-4-1.48c-.82-.2-1.73-.26-2-1.07m-29.44,27.68-.91,1.57-1.15-.67.91-1.58a4.33,4.33,0,0,1-.69-.68l-1.58.91-.66-1.15,1.56-.9a4.37,4.37,0,0,1-.24-.88h-3.61v-1.48h3.61a4.44,4.44,0,0,1,.24-.88l-1.55-.9.66-1.15,1.56.9a4.45,4.45,0,0,1,.7-.7l-.9-1.55,1.15-.66.89,1.54a4.32,4.32,0,0,1,.89-.24V504h1.47v3.59a4.33,4.33,0,0,1,.89.24l.89-1.54,1.15.66-.9,1.55a4.4,4.4,0,0,1,.69.7l1.56-.9.66,1.15-1.55.9a4.51,4.51,0,0,1,.24.88H520v1.48h-3.61a4.36,4.36,0,0,1-.24.88l1.56.9-.66,1.15-1.57-.91a4.51,4.51,0,0,1-.69.68l.91,1.58-1.15.67-.91-1.57a4.45,4.45,0,0,1-.87.24V520h-1.47v-3.63a4.44,4.44,0,0,1-.87-.24M479,532.57c0,.9-.3,1.79.14,2.49.29.48.9.46,2.16.22,1.81-.35,2.65,3.82,5.62,1.91,1.34-.86,1.39-2.74,2.67-4a13.29,13.29,0,0,1,5.39-2.88c2.67-.85,4-.89,5.19-.4l.12.06-13.91,24.09A49.56,49.56,0,0,1,470,537.76Zm-7.17-19.28a4.19,4.19,0,0,0,.3,1.09c.38.79,1.57,1.39,1.24,2.12-1.75,3.9.59,3.62.59,5,0,1.1-1.88,1.55.44,3.67,1.79,1.63.6,2.78,3.36,5.14l-9,5.22a48.9,48.9,0,0,1-6-22.26Zm6.36-19.35c-1,1.6-.61,3.58-2.81,6.26-2.6,3.17-2.29,5.71-3.61,5.46-2.25-.41-2.23.78-2.49,2.3a4.18,4.18,0,0,0,.18,2.78h-6.69a48.9,48.9,0,0,1,6-22.26Zm8.12-24,8,13.69c-1.81-.26-2.35.61-3,2.48-.4,1.14,0,3-1.52,2.93-2.37,0-3.55-.35-5.09,1-.72.54-1.49,2-2.3,2.43-.52.3-1.16-.61-2.11-.31L470,486.28a49.6,49.6,0,0,1,16.3-16.3m14.06,13.63a6.54,6.54,0,0,0-3.07.31l-8.79-15.22a49,49,0,0,1,22.27-6v21.41a5.23,5.23,0,0,1-2,.69c-1.46,0-.59-1.69-2.13-1.69-.89,0-1.28,1.3-2.31,1.55-1.44.36-2.49-.78-4-1.09m2.21,47.46c1,.27,1.8-.27,2.88-3.3.6-1.68,3.81-1.46,4.46-.5.46.68.78,1.14,1,1.47v32.57a48.94,48.94,0,0,1-22.41-6ZM512,459.95a52,52,0,1,0,52,52,52,52,0,0,0-52-52" transform="translate(-430 -429.95)"/></g><g class="b"><path class="c" d="M552.66,521.62c0-1.18.75-3.05.17-4-.28-.45-1.06-.23-1.59-.58-1-.66-.09-1.61-.44-2.66-.52-1.53-2.36-3.38-2.89-4.76a4.3,4.3,0,0,1-.21-2.81c.43-1.26,1.62-3.24,2-4.35a10.67,10.67,0,0,0-1.63-9.31c-1.12-1.42-1.46-2.5-6.24-3.7-.81-.21-1.73-.26-2-1.07s.28-1.88-.95-2.71a2.63,2.63,0,0,0-4.17,1.61c-.13.45-.56,1-1.76.65s-1.6-.48-2-1.61-.47-2-1.1-2-.56,1.32-1.6,1.32c-.81,0-.44-2.48-1.94-2.48s-1.11,1.64-1.85,1.64c-.49,0-.57-.83-1.95-.83a8,8,0,0,0-2.71.47c-1.1.49-.64,2.19-2.9,2.57a2.68,2.68,0,0,1-1.94-.07c-.88-.51-.5-2.07-1.52-2.76-1.87-1.27-3.39.66-4.7.62s-.58-1.69-2.12-1.69c-.9,0-1.28,1.3-2.3,1.55-1.44.37-2.49-.78-4-1.09-2-.41-3.29.8-4.76.35-2.92-.89-3.51-.08-4.31,2.18-.4,1.14,0,3-1.52,2.94-2.37,0-3.56-.35-5.09,1-.72.54-1.49,2-2.3,2.43-.58.33-1.28-.82-2.4-.2-3.42,1.88-1.61,4.23-4.61,7.88-2.6,3.16-2.28,5.71-3.61,5.46-2.25-.41-2.23.78-2.49,2.3-.29,1.74-.26,3.33,1.3,3.33s1,1.82,1.56,3.09c.38.79,1.57,1.39,1.24,2.12-1.75,3.9.59,3.62.59,5,0,1.1-1.89,1.55.44,3.67,1.87,1.7.49,2.87,3.72,5.44,1.75,1.4.26,3.2,1,4.42.3.48.91.46,2.16.22,1.81-.35,2.66,3.82,5.62,1.91,1.34-.86,1.39-2.75,2.67-4a13.32,13.32,0,0,1,5.38-2.87c2.67-.86,4-.89,5.2-.4,2.5,1,3.51,2.86,5.31-2.17.6-1.68,3.81-1.46,4.46-.5,1.19,1.76,1.42,2.15,2.43,2.15a2.64,2.64,0,0,0,2.23-1.24c1.64-1.42,3.86-.52,5.23-1.67,1.9-1.6-.08-2.41,1-3.13,1.21-.84,1.77,1.19,3.72,3.14,1.2,1.2,2.78-.8,3.76.14,1.5,1.43,1.9,2.75,5.27,4.14,1.57.65-1.78,3.27.81,4,1.11.33,3.08.28,3.62.82s-.65,1.51,1.08,2a4.17,4.17,0,0,0,4.08-.9c1.44-1.42-.11-3.09,2.87-5.23,1.28-.92,2.71-.53,3.6-.94,1.16-.54,1.1-1.71,2.83-2.79.5-.31,1.6-.57,1.57-1.42-.11-2.88-1.32-3.46-1.31-4.79" transform="translate(-430 -429.95)"/><path class="g" d="M512,515a3,3,0,1,1,3-3,3,3,0,0,1-3,3m8-2.27v-1.47h-3.61a4.39,4.39,0,0,0-.24-.88l1.55-.9-.66-1.15-1.55.9a4.59,4.59,0,0,0-.7-.7l.9-1.55-1.15-.66-.89,1.54a4.34,4.34,0,0,0-.89-.24V504h-1.47v3.59a4.27,4.27,0,0,0-.89.24l-.89-1.54-1.15.66.9,1.55a4.42,4.42,0,0,0-.7.7l-1.56-.9-.66,1.15,1.55.9a4.32,4.32,0,0,0-.24.88h-3.61v1.47h3.61a4.31,4.31,0,0,0,.24.88l-1.56.9.66,1.15,1.58-.91a4.47,4.47,0,0,0,.69.69l-.91,1.58,1.15.67.91-1.57a4.43,4.43,0,0,0,.87.24V520h1.47v-3.63a4.34,4.34,0,0,0,.87-.24l.91,1.57,1.15-.67-.91-1.58a4.48,4.48,0,0,0,.69-.69l1.57.91.66-1.15-1.56-.9a4.42,4.42,0,0,0,.24-.87Z" transform="translate(-430 -429.95)"/><path class="g" d="M512,587.72A75.73,75.73,0,1,1,587.77,512,75.73,75.73,0,0,1,512,587.72M512,430c-44.31,0-82,37.73-82,82s37.73,82,82,82,82-37.73,82-82-37.73-82-82-82" transform="translate(-430 -429.95)"/><path class="h" d="M536.34,515c-.24.24-1.63-.14-2.35.48l-.18.17a2.71,2.71,0,0,0-.33.46,4,4,0,0,1-.72.87c-.16.15-.32.32-.49.47a1.8,1.8,0,0,1-1.28.45,1.68,1.68,0,0,1-1.13-.55,12,12,0,0,1-1.21-1.9,4.47,4.47,0,0,0-1.11-1c-.46-.34-.57-1,0-1.85s1.45-.39,2.26-.3H530a1.43,1.43,0,0,0,.33,0h.11c.92-.16,2-.13,2.54-.28s1-.57,2.27.43,1.42,2.27,1.14,2.56" transform="translate(-430 -429.95)"/><path class="h" d="M497.13,497.7a7.77,7.77,0,0,1-.9.91.72.72,0,0,1-.21.14l-.66.31a.79.79,0,0,0-.45.48c-.05,0-.1.42-.15.45a3.18,3.18,0,0,1-.79.91,2.44,2.44,0,0,1-.62.2h0a2,2,0,0,0-.67.31.89.89,0,0,1-.64.11c-.06,0-.33,0-.38-.05l-.1,0c-.07,0-.23-.14-.29-.17a1.54,1.54,0,0,1-.35-.34.71.71,0,0,0-.28-.2,1.59,1.59,0,0,0-.17-.06l-.32-.1a1.33,1.33,0,0,1-.68-.35,1.42,1.42,0,0,1-.14-.14,1.6,1.6,0,0,1-.41-1,8.67,8.67,0,0,1,0-1,2.42,2.42,0,0,1,.11-.6,1.23,1.23,0,0,1,.21-.37,1.17,1.17,0,0,1,.54-.36,2.4,2.4,0,0,1,.34-.08l.55-.08h0a.84.84,0,0,0,.67-.65s0-.15,0-.17l.05-.61a1,1,0,0,1,.41-.73,1.43,1.43,0,0,1,.24-.14,3.27,3.27,0,0,1,.65-.18,7.08,7.08,0,0,1,1-.08,2.09,2.09,0,0,1,.57.07,6,6,0,0,1,.71,0h0l.2,0a1.77,1.77,0,0,1,.74.42c.09.07.44.45.51.52a3.09,3.09,0,0,0,.42.38,1.63,1.63,0,0,1,.64,1.3v0a2.7,2.7,0,0,1-.15.6,1.34,1.34,0,0,1-.19.32" transform="translate(-430 -429.95)"/><path class="h" d="M515.24,497.46a4.34,4.34,0,0,1-2.19,2.7c-.83.31-2.31.17-2.32-1,0-.93.43-.57.25-1.21a11,11,0,0,1-.34-1.6c0-.3-.06-.59-.07-.84s-.24-.6-.39-.53-.36-.18-.39-.52a2.84,2.84,0,0,0-.43-.74.5.5,0,0,1-.06-.22,1.45,1.45,0,0,1,.53-1.43,2.55,2.55,0,0,1,2-1.34,3.26,3.26,0,0,1,2.31.48c.37.25.24.88.55,1.21s.14.27.56.46a2.38,2.38,0,0,1,.23,1.23,8.71,8.71,0,0,1-.25,3.35" transform="translate(-430 -429.95)"/><path class="h" d="M537.44,495.25a5,5,0,0,1-.33,1.44,2.41,2.41,0,0,1-2,2.45,1.73,1.73,0,0,0-.53.25c0,.08,0,.16,0,.24-.21.82-.17,1.43-1.84,1.53a9.09,9.09,0,0,1-2.51-.18,5.45,5.45,0,0,1-1.3-.42l-1.58-.14a3.72,3.72,0,0,1-2.35-1.08c-2.6-2.62-.11-4.68,1-4.7s1.35.46,1.95,1a2.7,2.7,0,0,0,2.86.23c.34-.3.77-1,1.09-1.3a2.42,2.42,0,0,1,1.31-.67,2.49,2.49,0,0,1,1.14-.83c1.87-.7,3.39.24,3.17,2.22" transform="translate(-430 -429.95)"/><path class="i" d="M579,525l.06-1.13-2.14,1.35a.38.38,0,0,1-.51-.12.33.33,0,0,1,0-.3l1.13-3.56-1.35.42-.5-2.33-1.46,1.89-1-1-.5,3.7a.36.36,0,0,1-.17.26.37.37,0,0,1-.51-.11L570.6,522l-.44,1-1.82-1,.67,2.15-1.05.66,2.62,2.43-2.17,1.37,4.76-.18-.76,3.37.75.16.76-3.36,4.21,2.21-1.36-2.17,3.41-1.06-.66-1.05,1.53-1.65Z" transform="translate(-430 -429.95)"/><path class="i" d="M573.45,541.63l.34-1.08-2.41.75a.37.37,0,0,1-.46-.24.34.34,0,0,1,0-.31l2-3.14-1.41.06.11-2.39-1.9,1.45-.76-1.19L567.58,539a.36.36,0,0,1-.23.21.35.35,0,0,1-.27,0,.36.36,0,0,1-.18-.22l-.76-2.42-.69.9-1.51-1.4.1,2.25-1.19.37,1.91,3-2.46.76,4.65,1.05-1.61,3.06.67.35,1.61-3.06,3.5,3.23-.77-2.45,3.58-.14-.38-1.19,1.91-1.2Z" transform="translate(-430 -429.95)"/><path class="i" d="M581,508.93l1-2-2,.61-.24-1.11-1.71,1.86a.37.37,0,0,1-.52,0,.35.35,0,0,1-.12-.28l.17-3.73-1.19.76-1.09-2.12-.92,2.2-1.25-.66.47,3.7a.35.35,0,0,1-.09.29.36.36,0,0,1-.25.11h0a.36.36,0,0,1-.26-.09l-1.86-1.71-.15,1.12-2-.45,1.2,1.9-.84.91,3.17,1.66-1.74,1.88,4.55-1.41.14,3.45.76,0-.14-3.44,4.64,1-1.88-1.74,3-1.91Z" transform="translate(-430 -429.95)"/><path class="i" d="M561.61,481.2l-.28,1.21,3.58-.14-.57,2.51,3.23-3.5,1.85,2.92.64-.41-1.85-2.91,4.53-1.41-2.49-.57,1.66-3.17-1.22-.27-.08-2.25-1.4,1.51-.76-.84-.55,2.47a.37.37,0,0,1-.44.28.36.36,0,0,1-.25-.18l-1.71-3.31-.66,1.25-2-1.29.3,2.37-1.41.06,2.26,3h0a.35.35,0,0,1,.07.3.38.38,0,0,1-.44.28l-2.47-.55.44,1-2,.61Z" transform="translate(-430 -429.95)"/><path class="i" d="M571,487.14l-.32,2.37-1.38-.31,1.42,3.45a.34.34,0,0,1,0,.31.35.35,0,0,1-.2.18.36.36,0,0,1-.28,0L568,491.93l.15,1.12-2.06.08,1.66,1.53-.58,1.1,3.48.79-1.2,2.28,4-2.54,1,3.29.72-.22-1-3.3,4.75-.2-2.27-1.19,2.42-2.62-1.1-.58.49-2.2-1.74,1.1-.52-1-1.18,2.24a.37.37,0,0,1-.49.15.34.34,0,0,1-.18-.24l-.8-3.64-1,1Z" transform="translate(-430 -429.95)"/><path class="i" d="M445.11,525l-.06-1.13,2.14,1.35a.37.37,0,0,0,.51-.12.33.33,0,0,0,0-.3l-1.13-3.56,1.35.42.5-2.33,1.46,1.89,1-1,.5,3.7a.36.36,0,0,0,.17.26.37.37,0,0,0,.51-.11l1.36-2.14.44,1,1.82-1-.68,2.15,1.05.66-2.62,2.43,2.18,1.37-4.76-.18.76,3.37-.75.16-.76-3.36L446,530.88l1.36-2.17-3.41-1.06.66-1.05-1.53-1.65Z" transform="translate(-430 -429.95)"/><path class="i" d="M450.65,541.63l-.34-1.08,2.41.75a.37.37,0,0,0,.46-.24.34.34,0,0,0,0-.31l-2-3.14,1.41.06-.11-2.39,1.9,1.45.76-1.19,1.44,3.45a.36.36,0,0,0,.23.21.35.35,0,0,0,.28,0,.36.36,0,0,0,.18-.22l.76-2.42.69.9,1.51-1.4-.1,2.25,1.19.37-1.91,3,2.46.76-4.65,1.05,1.6,3.06-.67.35-1.61-3.06-3.5,3.23.77-2.45-3.58-.14.38-1.19-1.91-1.2Z" transform="translate(-430 -429.95)"/><path class="i" d="M443.1,508.93l-1-2,2,.61.24-1.11L446,508.3a.37.37,0,0,0,.52,0,.35.35,0,0,0,.12-.28l-.17-3.73,1.19.76,1.09-2.12.92,2.2,1.25-.66-.47,3.7a.36.36,0,0,0,.09.29.37.37,0,0,0,.25.11h0a.35.35,0,0,0,.26-.09l1.86-1.71.15,1.12,2-.45-1.2,1.9.84.91-3.17,1.66,1.74,1.88-4.54-1.41-.14,3.45-.76,0,.14-3.44-4.64,1,1.88-1.74-3-1.91Z" transform="translate(-430 -429.95)"/><path class="i" d="M462.49,481.2l.28,1.21-3.58-.14.57,2.51-3.24-3.5-1.85,2.92-.64-.41,1.85-2.91-4.53-1.41,2.49-.57-1.66-3.17,1.22-.27.09-2.25,1.4,1.51.76-.84.55,2.47a.37.37,0,0,0,.44.28.36.36,0,0,0,.25-.18l1.71-3.31.66,1.25,2-1.29-.31,2.37,1.41.06-2.26,3h0a.35.35,0,0,0-.07.3.37.37,0,0,0,.44.28l2.47-.55-.44,1,2,.61Z" transform="translate(-430 -429.95)"/><path class="i" d="M453.05,487.14l.32,2.37,1.38-.31-1.42,3.45a.34.34,0,0,0,0,.31.36.36,0,0,0,.49.15l2.25-1.18-.15,1.12,2.06.08-1.66,1.53.58,1.1-3.48.79,1.2,2.28-4-2.54-1,3.29-.72-.22,1-3.3-4.75-.2,2.27-1.19L445,492l1.1-.58-.49-2.2,1.74,1.1.52-1L449,491.6a.37.37,0,0,0,.49.15.35.35,0,0,0,.18-.24l.8-3.64,1,1Z" transform="translate(-430 -429.95)"/><path class="i" d="M465.45,468.22a4.35,4.35,0,0,1,2.28-7.3,3.55,3.55,0,0,1,2.89.9l-1.8,1.7a1.4,1.4,0,0,0-1.9.06c-.86.8-.59,1.92.36,2.93s2.12,1.28,2.92.53a1.41,1.41,0,0,0,.16-2l1.82-1.71a3.66,3.66,0,0,1,.8,2.47,3.83,3.83,0,0,1-1.39,2.69,4.17,4.17,0,0,1-6.15-.27" transform="translate(-430 -429.95)"/><path class="i" d="M472,456.92l2.07-1.45,7.44,5.13-2.15,1.51-1.06-.78L475.94,463l.38,1.26-2,1.42Zm3.43,4.34,1.43-1-1.39-1.05-.89-.71h0s.24.65.36,1.08Z" transform="translate(-430 -429.95)"/><polygon class="i" points="48.57 22.6 50.79 21.5 55.39 24.55 55.41 24.54 53.3 20.27 55.45 19.21 59.2 26.8 56.9 27.94 52.36 24.82 52.34 24.83 54.47 29.14 52.32 30.2 48.57 22.6"/><path class="i" d="M490.24,447.43l2.41-.77,5.56,7.13-2.51.8-.77-1.06-2.73.87,0,1.31-2.35.75Zm2,5.17,1.67-.53-1-1.42c-.25-.35-.63-.94-.63-.94h0s0,.7,0,1.14Z" transform="translate(-430 -429.95)"/><path class="i" d="M497.77,445.26l3.86-.6a3.91,3.91,0,0,1,4.74,3.57,3.87,3.87,0,0,1-3.55,4.82l-3.76.58Zm4.54,5.8a1.89,1.89,0,0,0,1.58-2.44c-.21-1.38-1.07-2.06-2.24-1.88l-1.11.17.67,4.32Z" transform="translate(-430 -429.95)"/><path class="i" d="M509.92,443.89l2.52,0,3.28,8.42-2.63,0-.44-1.24-2.87,0-.39,1.25-2.47,0Zm.4,5.52,1.75,0-.56-1.65c-.14-.41-.34-1.08-.34-1.08h0s-.17.68-.3,1.1Z" transform="translate(-430 -429.95)"/><path class="i" d="M524.6,452.7h0a2.79,2.79,0,0,1-2.58.67,3.72,3.72,0,0,1-2.57-1.58,4.66,4.66,0,0,1-.6-3.44,4.11,4.11,0,0,1,4.9-3.64c2.18.38,3.37,1.75,3.32,3.65l-2.36-.41a1.36,1.36,0,0,0-1.21-1.22c-1.17-.2-1.93.68-2.17,2s.27,2.5,1.45,2.7a1.4,1.4,0,0,0,1.65-.79l-1.11-.19.3-1.73,3.45.6-.78,4.53-1.62-.28Z" transform="translate(-430 -429.95)"/><path class="i" d="M528.21,450.05a4.3,4.3,0,1,1,2.67,5.55,4.14,4.14,0,0,1-2.67-5.55M534,452c.44-1.31.2-2.51-.92-2.88s-2,.43-2.47,1.75-.2,2.5.92,2.87,2-.42,2.47-1.74" transform="translate(-430 -429.95)"/><path class="i" d="M537.3,453.18a4.31,4.31,0,1,1,1.8,5.89,4.15,4.15,0,0,1-1.8-5.89m5.42,2.79c.63-1.23.58-2.45-.48-3s-2.08.12-2.71,1.35-.57,2.44.48,3,2.07-.11,2.71-1.34" transform="translate(-430 -429.95)"/><path class="i" d="M544.82,458.83l2.07,1.46c-.32.6-.08,1.16.58,1.63.4.28,1,.47,1.29.05s-.1-.85-.8-1.66c-1-1.11-2.08-2.5-1-4s2.84-1.27,4.4-.16,2.32,2.54,1.28,4.07l-2-1.42c.21-.42.11-.85-.44-1.24s-.9-.33-1.1,0,.26.88,1.12,1.86,1.8,2.38.76,3.85-3,1.36-4.61.2c-1.8-1.27-2.61-3-1.51-4.63" transform="translate(-430 -429.95)"/><polygon class="i" points="125.92 29.88 130.75 34.37 129.38 35.85 126.36 33.04 125.58 33.88 128.1 36.23 126.84 37.59 124.31 35.24 123.41 36.21 126.52 39.1 125.07 40.66 120.15 36.08 125.92 29.88"/><path class="i" d="M466.86,550.79l1.65,1.91-4.37,7.91-1.71-2,.67-1.13-1.87-2.17-1.21.5L458.4,554Zm-4,3.84L464,556l.91-1.49c.23-.37.62-1,.62-1v0s-.63.31-1,.47Z" transform="translate(-430 -429.95)"/><path class="i" d="M470.55,555.07l3.29,2.62c1.36,1.08,2,2.61.93,4a2.15,2.15,0,0,1-2.37.75l0,0a1.78,1.78,0,0,1,.06,1.83c-.46.94-1.36,1.77-1.18,2l-.08.1-1.91-1.52c-.08-.28.64-1,1-1.74a1.05,1.05,0,0,0-.3-1.49l-.9-.72-1.84,2.31-1.94-1.54Zm-.4,4.48,1,.83c.56.44,1.05.44,1.42,0s.29-.94-.27-1.38l-1.07-.85Z" transform="translate(-430 -429.95)"/><path class="i" d="M474.46,564.2a4.35,4.35,0,0,1,7.64-.28,3.54,3.54,0,0,1,.12,3L480,565.8a1.4,1.4,0,0,0-.69-1.77c-1-.54-2,.09-2.64,1.32s-.5,2.42.48,2.93a1.41,1.41,0,0,0,1.92-.51l2.22,1.15a3.65,3.65,0,0,1-2.06,1.58,3.83,3.83,0,0,1-3-.42,4.16,4.16,0,0,1-1.79-5.89" transform="translate(-430 -429.95)"/><polygon class="i" points="54.38 134.96 61.04 137.96 60.17 139.88 57.96 138.88 55.35 144.69 53.09 143.67 55.7 137.87 53.52 136.89 54.38 134.96"/><rect class="i" x="488" y="571.46" width="8.47" height="2.48" transform="translate(-632.49 438.76) rotate(-72.4)"/><path class="i" d="M494.81,573.64a4.35,4.35,0,0,1,7.3-2.3,3.55,3.55,0,0,1,.92,2.88l-2.42-.51a1.39,1.39,0,0,0-1.13-1.52c-1.15-.24-1.91.62-2.2,2s.16,2.47,1.24,2.7a1.4,1.4,0,0,0,1.71-1l2.45.52a3.65,3.65,0,0,1-1.56,2.07,3.83,3.83,0,0,1-3,.4,4.16,4.16,0,0,1-3.29-5.2" transform="translate(-430 -429.95)"/><path class="i" d="M506.76,571.46l3.9.12a3.48,3.48,0,0,1,2.39.86,2.9,2.9,0,0,1,.88,2.27,2.8,2.8,0,0,1-3,2.78l-1.87-.06L509,580l-2.48-.08Zm2.36,4,1.34,0a.93.93,0,0,0,1-1,.9.9,0,0,0-1-1l-1.32,0Z" transform="translate(-430 -429.95)"/><path class="i" d="M514.6,571.64l4.19-.42c1.72-.17,3.26.47,3.44,2.19a2.15,2.15,0,0,1-1.17,2.19v0a1.78,1.78,0,0,1,1.32,1.27c.33,1,.26,2.23.58,2.28v.13l-2.43.25c-.25-.14-.26-1.19-.52-1.92a1.06,1.06,0,0,0-1.26-.86l-1.14.11.3,2.94-2.46.25Zm2.84,3.49,1.32-.13c.71-.07,1.07-.42,1-1s-.45-.87-1.15-.8l-1.35.14Z" transform="translate(-430 -429.95)"/><path class="i" d="M523.38,575a4.31,4.31,0,1,1,5.24,3.24,4.15,4.15,0,0,1-5.24-3.24m5.91-1.48c-.34-1.34-1.18-2.22-2.33-1.93s-1.48,1.46-1.14,2.81,1.18,2.21,2.33,1.92,1.48-1.45,1.15-2.79" transform="translate(-430 -429.95)"/><path class="i" d="M540,573.13h0a2.79,2.79,0,0,1-1.82,2,3.73,3.73,0,0,1-3,0,4.67,4.67,0,0,1-2.35-2.58,4.11,4.11,0,0,1,2.17-5.7c2-.86,3.78-.33,4.76,1.3l-2.21.92a1.36,1.36,0,0,0-1.67-.38c-1.09.46-1.27,1.61-.73,2.89s1.57,2,2.67,1.5a1.4,1.4,0,0,0,1-1.55l-1,.43-.68-1.62,3.23-1.35,1.78,4.24-1.52.64Z" transform="translate(-430 -429.95)"/><path class="i" d="M539.62,565l3.61-2.17c1.48-.89,3.15-1,4,.51a2.15,2.15,0,0,1-.12,2.48l0,0a1.78,1.78,0,0,1,1.74.59c.72.76,1.19,1.9,1.49,1.81l.07.11-2.09,1.26c-.29,0-.75-1-1.29-1.52a1.06,1.06,0,0,0-1.5-.24l-1,.59,1.52,2.53L544,572.21Zm4.06,1.94,1.14-.69c.61-.37.79-.83.48-1.34s-.78-.6-1.39-.23l-1.17.7Z" transform="translate(-430 -429.95)"/><path class="i" d="M548.57,559.08l2-1.59,7.79,4.59-2,1.66-1.11-.7-2.23,1.81.46,1.23-1.91,1.56Zm3.73,4.09,1.36-1.11-1.46-1c-.36-.24-.94-.64-.94-.64l0,0s.29.64.44,1Z" transform="translate(-430 -429.95)"/><polygon class="i" points="122.86 125.68 125.04 123.3 129.41 125.54 129.43 125.52 126.81 121.36 129 118.97 135.25 124.69 133.74 126.34 129.82 122.75 129.81 122.77 132.77 127.39 131.55 128.73 126.68 126.19 126.67 126.2 130.58 129.79 129.11 131.39 122.86 125.68"/></g></svg>