<?xml version="1.0" encoding="UTF-8"?>
<!DOCTYPE svg PUBLIC "-//W3C//DTD SVG 1.1//EN" "http://www.w3.org/Graphics/SVG/1.1/DTD/svg11.dtd">
<!-- Creator: CorelDRAW 2019 (64-Bit) -->
<svg xmlns="http://www.w3.org/2000/svg" xml:space="preserve" width="175.736mm" height="70.2945mm" version="1.1" style="shape-rendering:geometricPrecision; text-rendering:geometricPrecision; image-rendering:optimizeQuality; fill-rule:evenodd; clip-rule:evenodd"
viewBox="0 0 175.7358 70.2945"
 xmlns:xlink="http://www.w3.org/1999/xlink"
 xmlns:xodm="http://www.corel.com/coreldraw/odm/2003">
 <defs>
  <style type="text/css">
   <![CDATA[
    .fil1 {fill:#FBDC0F}
    .fil0 {fill:#1456A2}
    .fil2 {fill:#0059A4}
   ]]>
  </style>
 </defs>
 <g id="Layer_x0020_1">
  <metadata id="CorelCorpID_0Corel-Layer"/>
  <g id="_730226112">
   <polygon class="fil0" points="175.7073,70.2945 -0,70.2945 -0,0 175.7358,0 175.7358,70.2945 "/>
   <path class="fil1" d="M3.5149 35.1473c0,17.2803 35.3486,31.6323 84.3624,31.6323 49.0137,0 84.3437,-14.352 84.3437,-31.6323 0,-17.2811 -35.3485,-31.6324 -84.3437,-31.6324 -48.9851,0 -84.3624,14.3513 -84.3624,31.6324z"/>
   <path class="fil2" d="M81.626 45.7006c0.5571,0.7871 1.1623,1.5184 1.8669,2.1886l-19.0186 0c0,-0.7426 -0.7332,-2.2357 -1.5396,-3.416 -0.8037,-1.179 -5.1621,-7.6516 -5.1621,-7.6516l0 8.879c0,0.7313 0,1.446 0.3753,2.1886l-15.8417 0c0.3839,-0.7426 0.3839,-1.4573 0.3839,-2.1886l0 -21.0974c0,-0.7313 0,-1.4467 -0.3839,-2.1886l15.8417 0c-0.3753,0.7419 -0.3753,1.4573 -0.3753,2.1886l0 9.2177c0,0 5.0611,-6.4347 6.2241,-7.9365 0.8802,-1.1358 1.9581,-2.7279 1.9581,-3.4698l16.5312 0c-1.1338,0.7419 -2.3971,2.0683 -3.4332,3.2964 -0.904,1.0807 -6.0396,7.2033 -6.0396,7.2033 0,0 7.6052,11.3304 8.6128,12.7863zm4.988 -21.0974l0 0 0 21.0974c0,0.7313 0,1.446 -0.3738,2.1886l30.5701 0 0 -7.0857c-0.7518,0.3746 -1.4824,0.3746 -2.2423,0.3746l-12.8707 0 0 -3.3482 12.3673 0 0 -5.356 -12.3673 0 0 -3.3675 12.8707 0c0.7599,0 1.4905,0 2.2423,0.3374l0 -7.0551 -30.5701 0c0.3738,0.7678 0.3738,1.4832 0.3738,2.2145zm72.5655 21.0974l0 0c0.255,0.8157 0.6768,1.5463 1.2341,2.1886l-16.5743 0c0.0722,-0.7426 -0.2013,-1.4573 -0.5048,-2.1886 0,0 -0.2479,-0.5951 -0.6039,-1.4559l-0.1454 -0.3646 -9.5485 0 -0.1548 0.3932c0,0 -0.2736,0.712 -0.5314,1.4552 -0.2464,0.7313 -0.53,1.4453 -0.4284,2.1859l-13.0707 0c0.5394,-0.6489 0.9418,-1.3908 1.1883,-2.1859l7.8256 -21.0968c0.2836,-0.7432 0.5599,-1.4559 0.4596,-2.1885l22.0838 0c-0.2011,0.7326 0.2013,1.4453 0.4849,2.1885 0.6523,1.5908 7.7253,19.6416 8.2859,21.0689zm-18.6918 -7.2025l0 0 -2.3148 -5.9046c-0.2019,-0.5387 -0.3745,-1.1066 -0.5041,-1.6665 -0.1002,0.5672 -0.255,1.1278 -0.4562,1.6665 -0.0751,0.2477 -1.0548,2.828 -2.1887,5.9046l5.4638 0zm-105.687 -16.0835l0 0 -17.2266 0c0.3754,0.7419 0.3754,1.4573 0.3754,2.1886l0 21.0974c0,0.7313 0,1.446 -0.3754,2.1886l17.2266 0c-0.3771,-0.7426 -0.3771,-1.4573 -0.3771,-2.1886l0 -21.0974c0,-0.7313 0,-1.4467 0.3771,-2.1886zm119.0884 2.0152l0 0c0,0.0531 0,0.1269 -0.0285,0.1734 0.0559,1.867 1.6373,3.3223 3.5329,3.2685 1.9122,-0.0465 3.3953,-1.5941 3.3509,-3.4419l0 -0.1195c-0.0286,-1.8206 -1.5649,-3.2506 -3.4326,-3.2221l-0.2206 0c-1.8398,0.0465 -3.2757,1.5469 -3.2021,3.3416zm0.6763 0l0 0c0,1.4832 1.2353,2.68 2.7464,2.68 1.5083,0 2.7457,-1.1968 2.7457,-2.68 0,-1.4745 -1.2374,-2.6734 -2.7457,-2.6734 -1.4552,-0.0538 -2.6926,1.0521 -2.7464,2.4815l0 0.1919zm2.0689 1.9939l0 0 0 -1.4273 0.8788 0 0.8037 1.4273 0.6866 0 -0.8879 -1.5462c0.4596,-0.2458 0.7332,-0.6968 0.7332,-1.1816 0,-0.712 -0.548,-1.2813 -1.2812,-1.3072l-1.5377 0 0 4.035 0.6045 0zm0 -1.9939l0 0 0.8323 0c0.4032,0.0279 0.7499,-0.267 0.7499,-0.6589 0,-0.3932 -0.2744,-0.7419 -0.6775,-0.7419l-0.9047 0 0 1.4008z"/>
  </g>
 </g>
</svg>
