<svg xmlns="http://www.w3.org/2000/svg" viewBox="0 0 123 123"><title>Lululemon Athletica logo</title><path d="M512,450.5A61.5,61.5,0,1,1,450.5,512,61.5,61.5,0,0,1,512,450.5Zm32.24,91.93a9.78,9.78,0,0,1-5.56-1.78c-9.95-6.62-6.55-14.57.24-26.86,2.87-5.22,5.84-10.59,7.16-16.14,1.42-6,2.71-14.67-2.47-21.25-2.43-3.08-6.14-5.47-11-7.08-5.07-1.67-11.57-2.58-19.36-2.68h-2.51c-7.79.1-14.3,1-19.35,2.68-4.87,1.61-8.56,4-11,7.08-5.18,6.58-3.89,15.28-2.46,21.25,1.31,5.55,4.29,10.93,7.15,16.13,6.79,12.3,10.2,20.24.24,26.87a9.72,9.72,0,0,1-5.55,1.78c-3.87,0-8.34-1.94-10.71-3.12l.58,1c4.92,7.38,11.24,11.31,18.27,11.31a23.88,23.88,0,0,0,9.66-2.22,19.36,19.36,0,0,0,8.73-8.06,16.73,16.73,0,0,0,2.33-11,105.36,105.36,0,0,0-4.22-12.18c-4.91-12.68-11.61-30-5.82-38.49,2.44-3.58,6.83-5.33,13.42-5.35s11,1.77,13.42,5.35c5.79,8.48-.91,25.81-5.81,38.47a105.49,105.49,0,0,0-4.23,12.16,16.7,16.7,0,0,0,2.33,11.06,19.39,19.39,0,0,0,8.73,8.06,24,24,0,0,0,9.66,2.22c7,0,13.35-3.93,18.29-11.34l.56-1C552.58,540.49,548.11,542.43,544.23,542.43Z" transform="translate(-450.5 -450.5)" style="fill:#d31334"/></svg>