<?xml version="1.0" encoding="UTF-8" standalone="no"?>
<!-- Created with Inkscape (http://www.inkscape.org/) -->

<svg
   xmlns:dc="http://purl.org/dc/elements/1.1/"
   xmlns:cc="http://creativecommons.org/ns#"
   xmlns:rdf="http://www.w3.org/1999/02/22-rdf-syntax-ns#"
   xmlns:svg="http://www.w3.org/2000/svg"
   xmlns="http://www.w3.org/2000/svg"
   xmlns:sodipodi="http://sodipodi.sourceforge.net/DTD/sodipodi-0.dtd"
   xmlns:inkscape="http://www.inkscape.org/namespaces/inkscape"
   width="1000"
   height="994.51501"
   viewBox="0 0 264.58333 263.1321"
   version="1.1"
   id="svg8"
   sodipodi:docname="Starbucks (2011).svg"
   inkscape:version="0.92.2 (5c3e80d, 2017-08-06)">
  <defs
     id="defs2" />
  <sodipodi:namedview
     id="base"
     pagecolor="#ffffff"
     bordercolor="#666666"
     borderopacity="1.0"
     inkscape:pageopacity="0.0"
     inkscape:pageshadow="2"
     inkscape:zoom="0.35"
     inkscape:cx="630.49876"
     inkscape:cy="587.65891"
     inkscape:document-units="px"
     inkscape:current-layer="layer1"
     showgrid="false"
     units="px"
     inkscape:window-width="1366"
     inkscape:window-height="705"
     inkscape:window-x="-8"
     inkscape:window-y="-8"
     inkscape:window-maximized="1" />
  <metadata
     id="metadata5">
    <rdf:RDF>
      <cc:Work
         rdf:about="">
        <dc:format>image/svg+xml</dc:format>
        <dc:type
           rdf:resource="http://purl.org/dc/dcmitype/StillImage" />
        <dc:title></dc:title>
      </cc:Work>
    </rdf:RDF>
  </metadata>
  <g
     inkscape:label="Layer 1"
     inkscape:groupmode="layer"
     id="layer1"
     transform="translate(0,-33.867899)">
    <path
       style="fill:#00643c;stroke-width:1.11638546"
       inkscape:connector-curvature="0"
       class="st1"
       d="m 145.46501,91.138524 c -1.11638,-0.223277 -6.6983,-1.116386 -13.28498,-1.116386 -6.58667,0 -12.1686,0.893109 -13.28498,1.116386 -0.66983,0.111638 -0.89311,-0.558192 -0.44656,-0.893109 0.44656,-0.334915 13.73154,-10.494022 13.73154,-10.494022 0,0 13.28498,10.159107 13.73155,10.494022 0.44655,0.334917 0.22327,1.004747 -0.44657,0.893109 m -22.99754,65.643456 c 0,0 -0.66982,0.22327 -0.8931,0.89311 2.79096,2.12114 4.68882,7.03322 10.49402,7.03322 5.8052,0 7.70306,-4.91208 10.49402,-7.03322 -0.22327,-0.66984 -0.8931,-0.89311 -0.8931,-0.89311 0,0 -3.68407,0.89311 -9.60092,0.89311 -5.91684,0 -9.60092,-0.89311 -9.60092,-0.89311 m 9.60092,-8.14961 c -1.56293,0 -2.00949,-0.55819 -3.01424,-0.55819 -1.00474,0 -3.12587,0.8931 -3.57243,1.56294 0,0.33491 0.22328,0.66983 0.44656,1.00474 2.34441,0.33492 3.46079,1.67458 6.14011,1.67458 2.67933,0 3.79572,-1.33966 6.14013,-1.67458 0.33491,-0.33491 0.44655,-0.66983 0.44655,-1.00474 -0.44655,-0.78148 -2.45605,-1.56294 -3.57244,-1.56294 -1.00474,-0.11164 -1.33966,0.55819 -3.01424,0.55819 M 264.4717,173.6394 c -0.22328,3.12588 -0.44656,6.36339 -0.78147,9.37764 -14.95957,2.45605 -20.31821,-10.82894 -35.72433,-10.27074 0.8931,3.23751 1.67458,6.58666 2.23277,9.93583 12.72679,0 17.75053,11.83367 31.92862,10.04747 -0.78147,3.57242 -1.67457,7.14485 -2.67933,10.71729 -11.16385,1.11638 -15.0712,-9.93583 -28.02127,-9.71255 0.11164,1.89786 0.11164,3.68407 0.11164,5.58192 0,1.00476 0,2.12114 -0.11164,3.12588 11.05222,-0.11164 14.62465,10.04747 25.11867,9.60092 -1.33966,3.57244 -2.79096,7.03323 -4.35389,10.49402 -7.59142,-0.44655 -10.15911,-10.04747 -21.54625,-9.26599 -0.33491,2.45604 -0.78146,4.91209 -1.33965,7.36814 9.93582,-0.66984 12.05695,8.48453 19.20182,9.15435 -1.78622,3.34916 -3.79571,6.58668 -5.8052,9.71256 -4.24227,-2.23277 -7.92634,-9.04273 -15.85267,-9.48928 0.78146,-2.56769 1.56293,-5.13537 2.12112,-7.70306 -7.14486,0 -15.18284,-2.79096 -21.99278,-8.93108 2.23277,-12.61515 -17.30398,-25.34194 -17.30398,-34.60795 0,-9.93583 5.02373,-15.51775 5.02373,-29.02601 0,-10.04747 -4.91209,-20.87642 -12.1686,-28.24456 -1.4513,-1.4513 -2.9026,-2.56769 -4.57718,-3.68407 6.69832,8.37289 11.94533,18.19708 11.94533,29.69586 0,12.72679 -5.91684,19.42509 -5.91684,31.14714 0,11.72206 17.19232,21.88116 17.19232,33.93812 0,4.80046 -1.56293,9.37764 -6.47503,18.532 7.70306,7.70306 17.75053,11.83368 24.22556,11.83368 2.12114,0 3.23753,-0.66983 4.01899,-2.23277 0.66983,-1.4513 1.22802,-2.9026 1.78622,-4.3539 6.92159,0.22328 10.15911,6.58667 13.95482,9.15436 -2.12114,2.79096 -4.35391,5.58193 -6.69831,8.26126 -2.56769,-2.90261 -6.02849,-7.70306 -11.16386,-9.04273 -0.8931,1.78622 -1.89786,3.46079 -2.9026,5.24701 4.35391,1.22803 7.36814,5.58193 9.71255,8.48453 -2.45604,2.56768 -5.13537,5.02373 -7.81469,7.47978 -1.67458,-2.56769 -4.35391,-5.91684 -7.25651,-7.8147 -1.11639,1.45131 -2.23277,2.9026 -3.34915,4.35391 2.56768,1.67458 4.68881,4.80046 6.14011,7.2565 -3.12587,2.56769 -6.3634,4.9121 -9.71255,7.14487 -1.67457,-13.50827 -19.9833,-22.66262 -15.0712,-38.29202 -1.67458,2.79097 -3.57243,6.25176 -3.57243,10.38239 0,11.27549 12.05696,20.31821 12.95007,31.48206 -2.45605,1.45131 -5.02374,2.9026 -7.70306,4.24227 -0.44656,-12.39188 -13.17335,-25.90014 -13.17335,-35.94761 0,-11.2755 14.84793,-22.66262 14.84793,-36.05925 0,-13.39663 -17.0807,-22.66263 -17.0807,-34.38467 0,-11.72205 7.25651,-18.42036 7.25651,-33.49156 0,-11.05222 -5.24702,-22.10443 -13.285,-29.2493 -1.45129,-1.22802 -2.79096,-2.23277 -4.57717,-3.12588 7.59142,9.15436 12.05695,17.41562 12.05695,30.03077 0,14.17809 -8.37288,21.99279 -8.37288,35.83597 0,13.84317 16.74578,21.54623 16.74578,34.38467 0,12.83843 -15.62939,23.77901 -15.62939,37.06399 0,12.05697 13.73153,24.11392 13.95481,38.40366 -3.01424,1.33967 -6.02848,2.56769 -9.15436,3.57244 1.78622,-14.40138 -13.73154,-29.36094 -13.73154,-41.19463 0,-12.83843 16.18758,-24.00228 16.18758,-37.84546 0,-13.84318 -16.41086,-20.31822 -16.41086,-34.60795 0,-14.28973 10.15911,-22.21607 10.15911,-37.9571 0,-12.28024 -6.02848,-23.33245 -14.95956,-30.14241 -0.22328,-0.11163 -0.33492,-0.33491 -0.55819,-0.44655 -0.78147,-0.66984 -1.56295,0.11164 -0.89312,0.89311 6.25176,7.81469 9.60092,15.74103 9.60092,27.46308 0,14.40137 -11.61041,26.12341 -11.61041,40.07824 0,16.52249 15.6294,21.21132 15.6294,34.71958 0,13.50827 -16.74579,24.3372 -16.74579,38.73858 0,13.28498 15.85267,28.13291 13.06171,43.42739 -3.12588,0.78146 -6.36339,1.56293 -9.60091,2.12113 3.01424,-19.09019 -12.50351,-32.93337 -12.50351,-45.43689 0,-13.50827 17.30396,-25.67686 17.30396,-38.85021 0,-12.50352 -12.39187,-16.5225 -14.06645,-29.36093 -0.22327,-1.78622 -1.67458,-3.01424 -3.57243,-2.67933 -2.56768,0.44655 -5.80521,2.12113 -10.82894,2.12113 -5.13538,0 -8.26125,-1.67458 -10.82894,-2.12113 -1.89786,-0.33491 -3.34915,1.00474 -3.57243,2.67933 -1.67458,12.83843 -14.06646,16.85741 -14.06646,29.36093 0,13.28499 17.30398,25.34194 17.30398,38.85021 0,12.50352 -15.51776,26.23506 -12.50352,45.43689 -3.23751,-0.5582 -6.47504,-1.33967 -9.600915,-2.12113 -2.679325,-15.40612 13.061705,-30.14241 13.061705,-43.42739 0,-14.40138 -16.745777,-25.23031 -16.745777,-38.73858 0,-13.50826 15.629397,-18.19709 15.629397,-34.71958 0,-13.95483 -11.61041,-25.67687 -11.61041,-40.07824 0,-11.72205 3.34916,-19.64839 9.60091,-27.46308 0.5582,-0.78147 -0.11163,-1.4513 -0.8931,-0.89311 -0.22328,0.11164 -0.33491,0.33492 -0.55819,0.44655 -8.819451,6.80996 -14.959571,17.86217 -14.959571,30.14241 0,15.74103 10.159111,23.66737 10.159111,37.9571 0,14.28973 -16.410869,20.76477 -16.410869,34.60795 0,13.84318 16.187599,25.00703 16.187599,37.84546 0,11.83369 -15.517768,26.68162 -13.731551,41.19463 -3.125879,-1.11639 -6.14012,-2.23277 -9.15436,-3.57244 0.223277,-14.28974 13.954817,-26.34669 13.954817,-38.40366 0,-13.28498 -15.629396,-24.11393 -15.629396,-37.06399 0,-12.95007 16.745781,-20.5415 16.745781,-34.38467 0,-13.84318 -8.37289,-21.65788 -8.37289,-35.83597 0,-12.61515 4.465542,-20.87641 12.056962,-30.03077 -1.674578,0.89311 -3.125878,1.89786 -4.57718,3.12588 -8.037975,7.14487 -13.284986,18.30872 -13.284986,29.2493 0,15.0712 7.256505,21.76951 7.256505,33.49156 0,11.72204 -17.080696,20.98804 -17.080696,34.38467 0,13.39663 14.847925,24.67212 14.847925,36.05925 0,10.15911 -12.726793,23.66737 -13.173348,35.94761 -2.567686,-1.33967 -5.135372,-2.67933 -7.703059,-4.24227 1.004747,-11.27549 13.06171,-20.20657 13.06171,-31.48206 0,-4.13063 -1.897856,-7.59142 -3.572434,-10.38239 4.912096,15.6294 -13.396624,24.89539 -15.071203,38.29202 -3.349156,-2.23277 -6.586673,-4.57718 -9.712552,-7.14487 1.451301,-2.45604 3.684071,-5.58192 6.140119,-7.2565 -1.116385,-1.45131 -2.344409,-2.79097 -3.349156,-4.35391 -3.01424,1.78622 -5.581927,5.13537 -7.256505,7.8147 -2.679325,-2.34441 -5.35865,-4.9121 -7.814698,-7.47978 2.34441,-2.9026 5.358651,-7.36814 9.712554,-8.48453 -1.004747,-1.67458 -2.009494,-3.46079 -2.902603,-5.24701 -5.135373,1.33967 -8.596168,6.14012 -11.163854,9.04273 -2.344409,-2.67933 -4.57718,-5.35866 -6.698312,-8.26126 3.907349,-2.56769 7.033228,-8.81944 14.066456,-9.15436 0.558192,1.4513 1.228024,2.9026 1.786216,4.3539 0.78147,1.67458 1.897856,2.23277 4.018988,2.23277 6.475036,0 16.522503,-4.24226 24.225563,-11.83368 -5.023734,-9.15436 -6.475035,-13.73154 -6.475035,-18.532 0,-12.05696 17.192335,-22.21606 17.192335,-33.93812 0,-11.72205 -5.916842,-18.42035 -5.916842,-31.14714 0,-11.49878 5.135372,-21.32297 11.945323,-29.69586 -1.674578,1.00474 -3.12588,2.23277 -4.57718,3.68407 -7.368143,7.36814 -12.168601,18.30873 -12.168601,28.24456 0,13.50826 5.023734,18.97854 5.023734,29.02601 0,9.26601 -19.536745,21.9928 -17.303974,34.60795 -6.809951,6.25176 -14.959564,8.93108 -22.10443,8.93108 0.669831,2.56769 1.339662,5.13537 2.121132,7.70306 -8.037975,0.44655 -11.722047,7.25651 -15.852672,9.48928 -2.121132,-3.12588 -4.018988,-6.3634 -5.805205,-9.71256 7.144867,-0.78146 9.266,-9.93583 19.201829,-9.15435 -0.558192,-2.45605 -1.004746,-4.9121 -1.339662,-7.36814 -11.49877,-0.78148 -14.066456,8.93107 -21.546238,9.26599 -1.56294,-3.46079 -3.0142412,-6.92158 -4.3539037,-10.49402 10.4940237,0.44655 14.0664567,-9.71256 25.0070327,-9.60092 0,-1.00474 0,-2.00949 0,-3.12588 0,-1.89785 0.111639,-3.68406 0.111639,-5.58192 -12.950071,-0.33492 -16.857419,10.82893 -28.0212736,9.71255 -1.0047469,-3.4608 -1.8978552,-7.03323 -2.679325,-10.71729 14.0664566,1.7862 19.2018286,-10.15911 31.9286226,-10.04747 0.558192,-3.34917 1.339663,-6.69832 2.232771,-9.93583 C 21.322961,172.07646 15.964311,185.47309 1.0047469,183.01704 0.5581927,179.89115 0.33491562,176.76528 0.11163854,173.6394 17.527251,175.53726 24.113924,161.24752 39.966597,163.03374 c 1.451302,-3.79571 3.237518,-7.47978 5.247012,-11.05222 C 25.341949,148.52073 18.531997,165.15487 0,162.58719 1.5629396,91.138524 60.173172,33.867953 132.06839,33.867953 c 72.00687,0 130.50546,57.270571 132.51494,128.830877 -18.53199,2.56768 -25.34194,-14.06646 -45.2136,-10.60567 2.00949,3.57244 3.68407,7.2565 5.24702,11.05222 15.85267,-1.89786 22.3277,12.50352 39.85495,10.49402 M 75.132737,118.04341 c -9.712553,-4.01899 -21.546237,-3.01424 -31.705345,3.46079 -1.56294,-9.37763 -6.698312,-17.75053 -13.954818,-22.774255 -1.004746,-0.669832 -2.009493,0 -2.009493,1.116382 1.56294,19.871663 -10.047469,37.064003 -24.3372019,52.246833 14.7362879,4.46554 27.2398039,-14.51301 46.2183559,-7.92634 7.033228,-10.1591 15.741034,-19.09018 25.788502,-26.12341 m 56.935653,-11.94533 c -12.28024,0 -22.66262,6.92159 -25.34195,15.96432 -0.22327,0.66983 0.11164,1.11638 0.89312,0.78147 2.23276,-1.00475 4.68881,-1.45131 7.47977,-1.45131 5.02373,0 9.48928,1.89786 12.05696,5.02373 1.1164,3.79572 1.22803,9.37764 -0.11163,12.50352 -2.0095,-0.44655 -2.79097,-2.00948 -4.80046,-2.00948 -2.00949,0 -3.57243,1.45129 -7.03322,1.45129 -3.4608,0 -3.79572,-1.67458 -6.02849,-1.67458 -2.67932,0 -3.12588,2.67932 -3.12588,5.80521 0,13.73154 12.61516,32.59846 26.01178,32.59846 13.39662,0 26.01178,-18.86692 26.01178,-32.59846 0,-3.12589 -0.66983,-5.69357 -3.34915,-6.02849 -1.33966,1.00476 -2.67933,1.89786 -5.80521,1.89786 -3.4608,0 -4.3539,-1.45129 -6.3634,-1.45129 -2.45605,0 -2.23277,5.13537 -5.13537,5.47028 -1.89785,-4.57718 -2.00949,-10.60567 -0.44655,-15.85268 2.56768,-3.23751 7.03323,-5.02373 12.05696,-5.02373 2.67933,0 5.24701,0.44656 7.47979,1.4513 0.78146,0.33492 1.11638,-0.11163 0.8931,-0.78146 -2.67932,-9.15437 -13.06171,-16.07596 -25.34195,-16.07596 m 19.64839,19.64839 c -3.01424,0 -6.3634,0.8931 -8.59617,3.34915 -0.22328,0.66984 -0.22328,1.67458 0.11164,2.23277 5.35865,-1.78621 10.04747,-1.89785 12.39187,0.66984 1.22803,-1.11639 1.56294,-2.12113 1.56294,-3.23753 0,-1.78621 -1.89785,-3.01423 -5.47028,-3.01423 m -43.09248,6.25176 c 2.56769,-2.56769 8.03797,-2.45605 13.6199,-0.44656 0.22327,-2.79097 -4.80046,-5.91684 -9.82419,-5.91684 -3.68407,0 -5.47029,1.22803 -5.47029,3.01424 0.11164,1.22803 0.44655,2.23277 1.67458,3.34916 m 84.84529,-46.441633 c -9.71255,0.669831 -18.19708,4.018988 -25.00703,9.600915 2.9026,-8.261253 6.58667,-15.406119 11.27549,-22.327708 -12.39188,1.339662 -22.66262,5.805203 -30.25405,13.619901 l -5.91683,-15.517757 13.0617,-11.610408 -17.52725,-1.228024 -7.03323,-16.299227 -7.03323,16.299227 -17.52724,1.228024 13.06171,11.610408 -5.91685,15.517757 C 107.06136,78.746646 96.790614,74.169466 84.398736,72.829804 c 4.688818,6.921589 8.37289,14.178093 11.275492,22.327708 -6.80995,-5.581927 -15.29448,-8.931084 -25.007032,-9.600915 5.805204,7.479782 10.940576,15.517763 14.847925,24.113923 0.446554,1.00474 1.339663,1.33966 2.34441,0.78147 13.284989,-6.58668 28.244549,-10.38239 44.208859,-10.38239 15.85267,0 30.81224,3.68407 44.20887,10.38239 1.00474,0.55819 1.89785,0.22327 2.34441,-0.78147 3.7957,-8.59616 9.04271,-16.634141 14.84792,-24.113923 m 21.21132,58.610223 c 19.09019,-6.58667 31.59371,12.28024 46.33,7.92634 -14.28974,-15.18283 -25.90014,-32.37517 -24.33721,-52.246833 0.11164,-1.116382 -1.00474,-1.786214 -1.89785,-1.116382 -7.2565,5.023725 -12.39188,13.396625 -13.95482,22.774255 -10.04747,-6.47503 -21.88115,-7.36814 -31.70534,-3.46079 10.04747,7.03323 18.64363,15.96431 25.56522,26.12341"
       id="path838" />
  </g>
  <style
     id="style834"
     type="text/css">
	.st0{fill:#FFFFFF;}
	.st1{fill:#00643C;}
</style>
</svg>
